<svg width="136" height="68" viewBox="0 0 136 68" fill="none" xmlns="http://www.w3.org/2000/svg">
<path d="M35.8091 66.4329C13.128 58.7503 17.0086 28.6399 38.2579 21.4811C23.4166 17.941 13.1411 18.5783 8.31333 23.4061C7.47523 24.2442 6.77682 25.222 6.21372 26.3526C3.93077 31.2153 3.97443 37.6625 7.17405 45.6332C11.0415 55.2539 23.1547 66.4198 35.8047 66.4372L35.8091 66.4329Z" fill="white"/>
<path d="M28.1003 0.148871C54.9587 2.51039 71.9128 24.8204 95.4537 33.2756C96.0692 33.4982 96.724 33.7252 97.4093 33.9522C102.001 35.3708 106.685 35.6764 111.002 35.1919C113.394 34.5327 115.236 33.6117 116.507 32.5248C116.699 32.3589 116.882 32.1931 117.048 32.0184C117.057 32.0097 117.065 32.001 117.07 31.9923C117.227 31.8308 117.367 31.6605 117.497 31.4903C117.528 31.451 117.563 31.4073 117.594 31.368C117.86 31.0101 118.069 30.6347 118.226 30.2549C118.244 30.2113 118.261 30.1676 118.279 30.124C118.344 29.945 118.401 29.7661 118.445 29.5871C118.445 29.5696 118.453 29.5565 118.458 29.5391C118.501 29.3426 118.532 29.1462 118.545 28.9454C118.545 28.9018 118.549 28.8538 118.554 28.8101C118.563 28.6355 118.563 28.4609 118.554 28.2819C118.554 28.2514 118.554 28.2208 118.554 28.1903C118.536 27.9895 118.501 27.7843 118.458 27.5791C118.449 27.5355 118.436 27.4918 118.423 27.4438C118.379 27.2692 118.327 27.0946 118.261 26.92C118.248 26.8807 118.235 26.8371 118.218 26.7978C118.139 26.5926 118.043 26.3875 117.938 26.1779C117.917 26.1387 117.89 26.095 117.869 26.0557C117.772 25.8811 117.668 25.7065 117.554 25.5319C117.524 25.4839 117.493 25.4359 117.458 25.3879C117.314 25.1827 117.161 24.9775 116.991 24.768C116.961 24.7331 116.93 24.6982 116.899 24.6633C116.747 24.4843 116.585 24.3097 116.415 24.1351C116.363 24.0827 116.315 24.0303 116.262 23.9779C116.053 23.7728 115.834 23.5676 115.599 23.3668C115.572 23.345 115.542 23.3232 115.516 23.3013C115.297 23.118 115.07 22.9347 114.83 22.7557C114.761 22.7033 114.691 22.6509 114.621 22.5986C114.346 22.3978 114.062 22.197 113.757 22.0005C103.935 15.6275 90.5343 32.9439 80.1628 23.8077C80.368 23.8994 80.5818 23.9692 80.7957 24.0303C80.8307 24.039 80.8656 24.0521 80.9005 24.0609C81.1057 24.1176 81.3152 24.1569 81.5291 24.1918C81.5684 24.1962 81.612 24.2049 81.6513 24.2093C81.8696 24.2355 82.0878 24.2573 82.3104 24.2617C82.3323 24.2617 82.3584 24.2617 82.3803 24.2617C82.5985 24.2617 82.8168 24.2573 83.0438 24.2355C83.0743 24.2355 83.1005 24.2355 83.1311 24.2311C83.3624 24.2093 83.5938 24.1787 83.8295 24.1351C83.8731 24.1264 83.9212 24.1176 83.9692 24.1089C84.2049 24.0652 84.445 24.0129 84.6851 23.9517C84.7243 23.943 84.7636 23.9299 84.8029 23.9212C85.0474 23.8557 85.2962 23.7859 85.545 23.7029C85.5581 23.7029 85.5668 23.6942 85.5799 23.6942C85.8374 23.6113 86.0993 23.5152 86.3656 23.4148C86.4093 23.3974 86.4573 23.3799 86.5009 23.3625C86.7585 23.2621 87.016 23.1573 87.2779 23.0438C87.3259 23.022 87.3783 23.0001 87.4263 22.9783C87.697 22.8605 87.9676 22.7383 88.2426 22.6073C88.26 22.5986 88.2819 22.5898 88.2993 22.5811C88.57 22.4545 88.845 22.3192 89.1244 22.1795C89.1636 22.1621 89.2029 22.1402 89.2422 22.1228C89.5216 21.9831 89.8053 21.8347 90.0934 21.6863C90.1502 21.6557 90.2025 21.6295 90.2593 21.599C90.5474 21.4462 90.8355 21.2934 91.1279 21.1363C91.1672 21.1144 91.2065 21.0926 91.2414 21.0751C91.5383 20.9136 91.8351 20.7478 92.1406 20.5819C92.1537 20.5732 92.1712 20.5644 92.1843 20.5557C92.516 20.3724 92.8521 20.1847 93.1926 19.997C93.5025 19.8267 93.8125 19.6521 94.1224 19.4775C94.1966 19.4339 94.2708 19.3946 94.3494 19.3509C94.668 19.172 94.991 18.993 95.3141 18.814C95.3359 18.8009 95.3577 18.7922 95.3795 18.7791C95.6851 18.6132 95.9906 18.443 96.3006 18.2771C96.366 18.2422 96.4315 18.2073 96.4926 18.1724C96.8069 18.0021 97.1256 17.8319 97.4486 17.666C97.5184 17.6311 97.5883 17.5918 97.6581 17.5569C97.9855 17.3866 98.3173 17.2164 98.6534 17.0462C98.697 17.0243 98.745 17.0025 98.7887 16.9763C99.1073 16.8148 99.4303 16.6577 99.7577 16.5005C99.8057 16.4787 99.8494 16.4569 99.8974 16.435C100.238 16.2735 100.578 16.1164 100.923 15.9593C100.997 15.9287 101.067 15.8938 101.141 15.8632C101.482 15.7104 101.827 15.562 102.176 15.418C102.241 15.3918 102.303 15.3656 102.368 15.3394C102.722 15.1954 103.08 15.0513 103.438 14.916C103.451 14.9116 103.468 14.9029 103.481 14.8985C103.848 14.7589 104.214 14.6279 104.586 14.5013C104.655 14.4795 104.725 14.4533 104.795 14.4315C105.153 14.3092 105.515 14.1958 105.878 14.0866C105.952 14.0648 106.026 14.043 106.1 14.0211C106.471 13.912 106.847 13.8073 107.226 13.7156C107.266 13.7069 107.305 13.6981 107.349 13.685C107.711 13.5977 108.073 13.5148 108.44 13.4406C108.497 13.4275 108.558 13.4144 108.615 13.4057C108.994 13.3315 109.374 13.266 109.754 13.2092C109.832 13.1962 109.915 13.1874 109.994 13.1743C110.378 13.1219 110.762 13.0739 111.151 13.039C111.216 13.0346 111.282 13.0303 111.343 13.0215C111.727 12.991 112.111 12.9648 112.499 12.9517C112.53 12.9517 112.565 12.9517 112.595 12.9473C112.997 12.9342 113.403 12.9386 113.809 12.9473C113.857 12.9473 113.901 12.9473 113.949 12.9473C113.979 12.9473 114.01 12.9517 114.036 12.9517C116.537 13.039 119.13 13.5497 121.801 14.6497C123.085 15.2172 124.132 15.693 125.084 16.2954C125.11 16.3128 125.132 16.3259 125.158 16.3434C126.241 16.9807 127.336 17.714 128.445 18.5652C132.444 21.647 134.914 26.226 135.661 30.853C135.661 30.853 135.661 30.8486 135.661 30.8442C135.661 30.8573 135.661 30.8748 135.669 30.8879C135.669 30.901 135.674 30.9184 135.678 30.9315C135.678 30.949 135.678 30.9621 135.682 30.9796C137.402 42.0756 129.205 53.3463 108.361 44.734C88.6136 36.58 5.14424 -9.72498 0.0676303 31.4292C-0.84031 14.0561 7.33554 -1.68011 28.109 0.144502L28.1003 0.148871ZM35.8352 66.4198C43.8496 69.148 57.0278 65.717 75.8326 49.1471C80.3898 45.1356 84.8029 39.5308 91.5164 38.4177C79.9576 34.7728 74.0866 43.049 67.958 48.4487C54.3694 60.4178 43.723 65.5293 35.8352 66.4154V66.4198ZM38.7948 51.9757C38.7948 53.032 39.9384 53.6912 40.8508 53.163L48.5115 48.7368L56.1722 44.3106C57.0889 43.7824 57.0889 42.4641 56.1722 41.936L48.5115 37.5097L40.8508 33.0835C39.9341 32.5554 38.7948 33.2145 38.7948 34.2708V43.1189V51.9669V51.9757Z" fill="white"/>
</svg>
