<svg width="109" height="54" viewBox="0 0 109 54" fill="none" xmlns="http://www.w3.org/2000/svg">
<path d="M28.6469 53.1463C10.5021 47.0002 13.6065 22.9119 30.606 17.1849C18.7329 14.3528 10.5126 14.8626 6.65032 18.7249C5.97984 19.3953 5.42111 20.1776 4.97063 21.082C3.14427 24.9722 3.1792 30.13 5.73889 36.5065C8.83287 44.2031 18.5234 53.1358 28.6434 53.1498L28.6469 53.1463Z" fill="#7C4199"/>
<path d="M22.4802 0.119097C43.967 2.00831 57.5302 19.8563 76.363 26.6205C76.8554 26.7986 77.3792 26.9802 77.9274 27.1617C81.6011 28.2967 85.3481 28.5411 88.8018 28.1535C90.7154 27.6262 92.1891 26.8894 93.2053 26.0198C93.3589 25.8871 93.5056 25.7544 93.6383 25.6148C93.6453 25.6078 93.6523 25.6008 93.6558 25.5938C93.7815 25.4646 93.8932 25.3284 93.998 25.1922C94.0224 25.1608 94.0504 25.1259 94.0748 25.0944C94.2878 24.8081 94.4554 24.5078 94.5812 24.204C94.5951 24.169 94.6091 24.1341 94.6231 24.0992C94.6755 23.956 94.7208 23.8128 94.7558 23.6697C94.7558 23.6557 94.7628 23.6452 94.7662 23.6313C94.8012 23.4741 94.8256 23.317 94.8361 23.1563C94.8361 23.1214 94.8396 23.083 94.8431 23.0481C94.85 22.9084 94.85 22.7687 94.8431 22.6255C94.8431 22.6011 94.8431 22.5766 94.8431 22.5522C94.8291 22.3916 94.8012 22.2274 94.7662 22.0633C94.7593 22.0284 94.7488 21.9935 94.7383 21.9551C94.7034 21.8154 94.6615 21.6757 94.6091 21.536C94.5986 21.5046 94.5882 21.4697 94.5742 21.4382C94.5113 21.2741 94.4345 21.11 94.3507 20.9424C94.3332 20.9109 94.3123 20.876 94.2948 20.8446C94.218 20.7049 94.1342 20.5652 94.0434 20.4255C94.0189 20.3871 93.9945 20.3487 93.9666 20.3103C93.8513 20.1462 93.7291 19.982 93.5929 19.8144C93.5685 19.7865 93.544 19.7585 93.5196 19.7306C93.3973 19.5874 93.2681 19.4478 93.132 19.3081C93.09 19.2662 93.0516 19.2243 93.0097 19.1823C92.8421 19.0182 92.6675 18.8541 92.4789 18.6935C92.458 18.676 92.4335 18.6585 92.4126 18.6411C92.238 18.4944 92.0564 18.3477 91.8643 18.2046C91.8085 18.1627 91.7526 18.1208 91.6967 18.0788C91.4767 17.9182 91.2497 17.7576 91.0053 17.6004C83.1481 12.502 72.4274 26.3551 64.1303 19.0462C64.2944 19.1195 64.4655 19.1754 64.6366 19.2243C64.6645 19.2312 64.6925 19.2417 64.7204 19.2487C64.8845 19.2941 65.0522 19.3255 65.2233 19.3535C65.2547 19.3569 65.2896 19.3639 65.321 19.3674C65.4957 19.3884 65.6703 19.4058 65.8484 19.4093C65.8658 19.4093 65.8868 19.4093 65.9042 19.4093C66.0788 19.4093 66.2534 19.4058 66.435 19.3884C66.4595 19.3884 66.4804 19.3884 66.5049 19.3849C66.6899 19.3674 66.875 19.343 67.0636 19.3081C67.0985 19.3011 67.1369 19.2941 67.1753 19.2871C67.3639 19.2522 67.556 19.2103 67.748 19.1614C67.7795 19.1544 67.8109 19.1439 67.8423 19.1369C68.0379 19.0846 68.2369 19.0287 68.436 18.9623C68.4464 18.9623 68.4534 18.9554 68.4639 18.9554C68.6699 18.889 68.8795 18.8122 69.0925 18.7319C69.1274 18.7179 69.1658 18.7039 69.2007 18.69C69.4068 18.6096 69.6128 18.5258 69.8223 18.435C69.8607 18.4176 69.9026 18.4001 69.9411 18.3827C70.1576 18.2884 70.3741 18.1906 70.5941 18.0858C70.608 18.0789 70.6255 18.0719 70.6395 18.0649C70.856 17.9636 71.076 17.8554 71.2995 17.7436C71.3309 17.7296 71.3623 17.7122 71.3938 17.6982C71.6173 17.5865 71.8443 17.4677 72.0747 17.349C72.1201 17.3246 72.162 17.3036 72.2074 17.2792C72.4379 17.1569 72.6684 17.0347 72.9024 16.909C72.9338 16.8915 72.9652 16.8741 72.9931 16.8601C73.2306 16.7309 73.4681 16.5982 73.7125 16.4655C73.723 16.4585 73.737 16.4515 73.7474 16.4446C74.0128 16.2979 74.2817 16.1477 74.5541 15.9976C74.802 15.8614 75.05 15.7217 75.2979 15.582C75.3573 15.5471 75.4166 15.5157 75.4795 15.4807C75.7344 15.3376 75.9928 15.1944 76.2512 15.0512C76.2687 15.0407 76.2862 15.0338 76.3036 15.0233C76.5481 14.8906 76.7925 14.7544 77.0405 14.6217C77.0928 14.5938 77.1452 14.5658 77.1941 14.5379C77.4455 14.4017 77.7005 14.2655 77.9589 14.1328C78.0147 14.1049 78.0706 14.0734 78.1265 14.0455C78.3884 13.9093 78.6538 13.7731 78.9227 13.6369C78.9576 13.6195 78.996 13.602 79.0309 13.5811C79.2859 13.4518 79.5443 13.3261 79.8062 13.2004C79.8446 13.183 79.8795 13.1655 79.9179 13.148C80.1903 13.0188 80.4627 12.8931 80.7386 12.7674C80.7979 12.743 80.8538 12.715 80.9132 12.6906C81.1856 12.5684 81.4614 12.4496 81.7408 12.3344C81.7932 12.3134 81.8421 12.2925 81.8945 12.2715C82.1773 12.1563 82.4637 12.041 82.75 11.9328C82.7605 11.9293 82.7745 11.9223 82.7849 11.9188C83.0783 11.8071 83.3716 11.7023 83.6684 11.601C83.7243 11.5836 83.7802 11.5626 83.836 11.5452C84.1224 11.4474 84.4122 11.3566 84.7021 11.2693C84.7614 11.2518 84.8208 11.2344 84.8802 11.2169C85.177 11.1296 85.4773 11.0458 85.7811 10.9725C85.8126 10.9655 85.844 10.9585 85.8789 10.948C86.1687 10.8782 86.4586 10.8118 86.7519 10.7525C86.7973 10.742 86.8462 10.7315 86.8916 10.7245C87.1954 10.6652 87.4992 10.6128 87.803 10.5674C87.8659 10.5569 87.9322 10.5499 87.9951 10.5395C88.3024 10.4976 88.6097 10.4591 88.9205 10.4312C88.9729 10.4277 89.0253 10.4242 89.0742 10.4172C89.3815 10.3928 89.6888 10.3718 89.9995 10.3614C90.024 10.3614 90.0519 10.3614 90.0764 10.3579C90.3977 10.3474 90.7224 10.3509 91.0472 10.3579C91.0856 10.3579 91.1205 10.3579 91.1589 10.3579C91.1834 10.3579 91.2078 10.3614 91.2288 10.3614C93.2297 10.4312 95.304 10.8398 97.4412 11.7198C98.4678 12.1737 99.3059 12.5544 100.067 13.0363C100.088 13.0503 100.106 13.0607 100.127 13.0747C100.993 13.5845 101.869 14.1712 102.756 14.8522C105.955 17.3176 107.931 20.9808 108.529 24.6824C108.529 24.6824 108.529 24.6789 108.529 24.6754C108.529 24.6859 108.529 24.6998 108.536 24.7103C108.536 24.7208 108.539 24.7347 108.542 24.7452C108.542 24.7592 108.542 24.7697 108.546 24.7836C109.922 33.6605 103.364 42.677 86.6891 35.7872C70.8909 29.264 4.11539 -7.77998 0.0541042 25.1433C-0.672248 11.2449 5.86843 -1.34409 22.4872 0.115601L22.4802 0.119097ZM28.6682 53.1358C35.0796 55.3184 45.6222 52.5736 60.6661 39.3177C64.3118 36.1084 67.8423 31.6246 73.2131 30.7341C63.9661 27.8183 59.2693 34.4392 54.3664 38.7589C43.4956 48.3342 34.9784 52.4234 28.6682 53.1323V53.1358ZM31.0358 41.5805C31.0358 42.4256 31.9508 42.9529 32.6806 42.5304L38.8092 38.9894L44.9378 35.4485C45.6711 35.0259 45.6711 33.9713 44.9378 33.5488L38.8092 30.0078L32.6806 26.4668C31.9473 26.0443 31.0358 26.5716 31.0358 27.4167V34.4951V41.5735V41.5805Z" fill="url(#paint0_linear_1_3325)"/>
<defs>
<linearGradient id="paint0_linear_1_3325" x1="54.3559" y1="53.8098" x2="54.3559" y2="0.00385491" gradientUnits="userSpaceOnUse">
<stop stop-color="#565EAA"/>
<stop offset="0.22" stop-color="#7C4199"/>
<stop offset="0.53" stop-color="#DF237B"/>
<stop offset="0.79" stop-color="#F6861F"/>
<stop offset="1" stop-color="#FFDB6F"/>
</linearGradient>
</defs>
</svg>
