<svg width="88" height="65" viewBox="0 0 88 65" fill="none" xmlns="http://www.w3.org/2000/svg">
<path d="M23.4281 43.017C8.91228 38.1002 11.3959 18.8295 24.9954 14.2479C15.497 11.9822 8.92066 12.3901 5.83087 15.4799C5.29449 16.0163 4.8475 16.6421 4.48712 17.3656C3.02604 20.4778 3.05398 24.604 5.10173 29.7052C7.57692 35.8625 15.3293 43.0086 23.4254 43.0198L23.4281 43.017Z" fill="#7C4199"/>
<path d="M18.4948 0.595278C35.6842 2.10665 46.5348 16.3851 61.601 21.7964C61.9949 21.9389 62.414 22.0841 62.8526 22.2294C65.7915 23.1373 68.7891 23.3329 71.552 23.0228C73.083 22.601 74.2619 22.0115 75.0748 21.3159C75.1978 21.2097 75.3151 21.1036 75.4213 20.9918C75.4268 20.9862 75.4324 20.9806 75.4352 20.975C75.5358 20.8717 75.6252 20.7627 75.709 20.6538C75.7286 20.6286 75.7509 20.6007 75.7705 20.5755C75.9409 20.3465 76.075 20.1062 76.1755 19.8632C76.1867 19.8352 76.1979 19.8073 76.2091 19.7794C76.251 19.6648 76.2873 19.5503 76.3152 19.4357C76.3152 19.4246 76.3208 19.4162 76.3236 19.405C76.3515 19.2793 76.3711 19.1536 76.3795 19.0251C76.3795 18.9971 76.3823 18.9664 76.3851 18.9385C76.3907 18.8267 76.3907 18.715 76.3851 18.6004C76.3851 18.5809 76.3851 18.5613 76.3851 18.5418C76.3739 18.4133 76.3515 18.282 76.3236 18.1507C76.318 18.1227 76.3096 18.0948 76.3013 18.064C76.2733 17.9523 76.2398 17.8406 76.1979 17.7288C76.1895 17.7037 76.1811 17.6757 76.17 17.6506C76.1197 17.5193 76.0582 17.388 75.9912 17.2539C75.9772 17.2287 75.9604 17.2008 75.9465 17.1757C75.885 17.0639 75.818 16.9522 75.7453 16.8404C75.7258 16.8097 75.7062 16.779 75.6839 16.7482C75.5917 16.6169 75.4939 16.4856 75.3849 16.3515C75.3654 16.3292 75.3458 16.3068 75.3263 16.2845C75.2285 16.1699 75.1251 16.0582 75.0162 15.9465C74.9827 15.9129 74.9519 15.8794 74.9184 15.8459C74.7843 15.7146 74.6446 15.5833 74.4938 15.4548C74.477 15.4408 74.4575 15.4268 74.4407 15.4129C74.301 15.2955 74.1557 15.1782 74.0021 15.0637C73.9574 15.0301 73.9127 14.9966 73.868 14.9631C73.692 14.8346 73.5104 14.7061 73.3148 14.5803C67.0291 10.5016 58.4526 21.5841 51.8148 15.7369C51.9461 15.7956 52.083 15.8403 52.2199 15.8794C52.2422 15.885 52.2646 15.8934 52.287 15.899C52.4183 15.9353 52.5523 15.9604 52.6892 15.9828C52.7144 15.9856 52.7423 15.9911 52.7675 15.9939C52.9071 16.0107 53.0468 16.0247 53.1893 16.0275C53.2033 16.0275 53.22 16.0275 53.234 16.0275C53.3737 16.0275 53.5134 16.0247 53.6586 16.0107C53.6782 16.0107 53.695 16.0107 53.7145 16.0079C53.8626 15.9939 54.0106 15.9744 54.1615 15.9465C54.1894 15.9409 54.2202 15.9353 54.2509 15.9297C54.4017 15.9017 54.5554 15.8682 54.7091 15.8291C54.7342 15.8235 54.7593 15.8151 54.7845 15.8096C54.9409 15.7677 55.1002 15.723 55.2594 15.6699C55.2678 15.6699 55.2734 15.6643 55.2817 15.6643C55.4466 15.6112 55.6142 15.5497 55.7846 15.4855C55.8125 15.4743 55.8433 15.4631 55.8712 15.452C56.036 15.3877 56.2009 15.3207 56.3685 15.248C56.3992 15.2341 56.4327 15.2201 56.4635 15.2061C56.6367 15.1307 56.8099 15.0525 56.9859 14.9687C56.9971 14.9631 57.011 14.9575 57.0222 14.9519C57.1954 14.8709 57.3714 14.7843 57.5502 14.6949C57.5753 14.6837 57.6005 14.6697 57.6256 14.6586C57.8044 14.5692 57.986 14.4742 58.1704 14.3792C58.2067 14.3597 58.2402 14.3429 58.2766 14.3233C58.4609 14.2256 58.6453 14.1278 58.8325 14.0272C58.8576 14.0132 58.8828 13.9993 58.9051 13.9881C59.0951 13.8847 59.2851 13.7786 59.4806 13.6724C59.489 13.6668 59.5002 13.6612 59.5086 13.6556C59.7209 13.5383 59.936 13.4182 60.1539 13.2981C60.3522 13.1891 60.5506 13.0774 60.7489 12.9656C60.7964 12.9377 60.8439 12.9125 60.8942 12.8846C61.0982 12.7701 61.3049 12.6555 61.5116 12.541C61.5256 12.5326 61.5396 12.527 61.5535 12.5186C61.7491 12.4125 61.9446 12.3035 62.143 12.1974C62.1849 12.175 62.2268 12.1527 62.2659 12.1303C62.467 12.0214 62.671 11.9124 62.8777 11.8062C62.9224 11.7839 62.9671 11.7588 63.0118 11.7364C63.2213 11.6275 63.4337 11.5185 63.6488 11.4095C63.6767 11.3956 63.7074 11.3816 63.7354 11.3648C63.9393 11.2615 64.146 11.1609 64.3556 11.0603C64.3863 11.0464 64.4142 11.0324 64.445 11.0184C64.6629 10.9151 64.8808 10.8145 65.1015 10.7139C65.149 10.6944 65.1937 10.672 65.2412 10.6525C65.4591 10.5547 65.6798 10.4597 65.9033 10.3675C65.9452 10.3507 65.9843 10.334 66.0262 10.3172C66.2525 10.225 66.4816 10.1328 66.7106 10.0462C66.719 10.0434 66.7302 10.0379 66.7386 10.0351C66.9732 9.94567 67.2079 9.86186 67.4454 9.78084C67.49 9.76687 67.5348 9.75011 67.5795 9.73614C67.8085 9.65792 68.0404 9.58528 68.2723 9.51544C68.3198 9.50147 68.3673 9.4875 68.4148 9.47354C68.6522 9.40369 68.8925 9.33664 69.1355 9.27798C69.1607 9.27239 69.1858 9.26681 69.2137 9.25843C69.4456 9.20255 69.6775 9.14948 69.9122 9.10198C69.9485 9.0936 69.9876 9.08522 70.0239 9.07963C70.267 9.03214 70.51 8.99024 70.7531 8.95392C70.8033 8.94554 70.8564 8.93995 70.9067 8.93156C71.1525 8.89804 71.3984 8.86731 71.647 8.84496C71.6889 8.84217 71.7308 8.83937 71.77 8.83379C72.0158 8.81423 72.2616 8.79747 72.5103 8.78909C72.5298 8.78909 72.5522 8.78909 72.5717 8.7863C72.8287 8.77792 73.0885 8.78071 73.3484 8.7863C73.3791 8.7863 73.407 8.7863 73.4378 8.7863C73.4573 8.7863 73.4769 8.78909 73.4936 8.78909C75.0944 8.84496 76.7538 9.17182 78.4635 9.87582C79.2849 10.239 79.9554 10.5435 80.5644 10.929C80.5812 10.9402 80.5951 10.9486 80.6119 10.9598C81.3047 11.3676 82.0059 11.837 82.7155 12.3817C85.2745 14.3541 86.8557 17.2846 87.3334 20.2459C87.3334 20.2459 87.3334 20.2431 87.3334 20.2403C87.3334 20.2487 87.3334 20.2599 87.339 20.2683C87.339 20.2766 87.3418 20.2878 87.3446 20.2962C87.3446 20.3074 87.3446 20.3157 87.3474 20.3269C88.4481 27.4284 83.2016 34.6416 69.8619 29.1297C57.2233 23.9112 3.80293 -5.72399 0.553903 20.6147C-0.0271782 9.49589 5.20537 -0.57527 18.5004 0.592481L18.4948 0.595278ZM23.4452 43.0087C28.5743 44.7547 37.0084 42.5589 49.0435 31.9541C51.9601 29.3868 54.7845 25.7997 59.0811 25.0873C51.6835 22.7546 47.926 28.0514 44.0037 31.5071C35.3071 39.1674 28.4933 42.4388 23.4452 43.0059V43.0087ZM25.3393 33.7644C25.3393 34.4405 26.0712 34.8623 26.6551 34.5243L31.558 31.6915L36.4608 28.8588C37.0475 28.5207 37.0475 27.677 36.4608 27.339L31.558 24.5062L26.6551 21.6735C26.0684 21.3354 25.3393 21.7573 25.3393 22.4333V28.0961V33.7588V33.7644Z" fill="url(#paint0_linear_1_3680)"/>
<path d="M12.4422 53.3253L9.22406 64.5H11.7923L12.7916 60.9183H17.3253L18.3403 64.5H20.9086L17.6731 53.3253H12.4422ZM13.4085 58.6994L14.7398 53.9595H15.374L16.7053 58.6994H13.4085Z" fill="#FFDB6F"/>
<path d="M31.3919 62.2811L31.8671 63.8658H31.2329L27.8574 53.3253H22.8641V64.5H25.3993V55.5442L24.9241 53.9595H25.5583L28.9338 64.5H33.9271V53.3253H31.3919V62.2811Z" fill="#FFDB6F"/>
<path d="M35.8826 55.5442H38.4193V62.2811H35.8826V64.5H43.4913V62.2811H40.9545V55.5442H43.4913V53.3253H35.8826V55.5442Z" fill="#FFDB6F"/>
<path d="M52.7061 63.8658H52.0719L50.44 53.3253H45.4467V64.5H47.9835V55.5442L47.5067 53.9595H48.1408L49.9317 64.5H54.8463L56.6371 53.9595H57.2713L56.796 55.5442V64.5H59.3312V53.3253H54.3395L52.7061 63.8658Z" fill="#FFDB6F"/>
<path d="M64.9648 53.3253L61.2871 64.5H62.3179L63.8081 59.9662H68.2774L69.7676 64.5H70.7984L67.1207 53.3253H64.9648ZM64.093 59.0787L65.8838 53.6417H66.2001L67.991 59.0787H64.0914H64.093Z" fill="#FFDB6F"/>
<path d="M78.7761 54.2129V53.3253H72.7537V54.2129H75.2416V63.6124H72.7537V64.5H78.7761V63.6124H76.2881V54.2129H78.7761Z" fill="#FFDB6F"/>
<defs>
<linearGradient id="paint0_linear_1_3680" x1="43.9954" y1="43.5478" x2="43.9954" y2="0.503084" gradientUnits="userSpaceOnUse">
<stop stop-color="#565EAA"/>
<stop offset="0.22" stop-color="#7C4199"/>
<stop offset="0.53" stop-color="#DF237B"/>
<stop offset="0.79" stop-color="#F6861F"/>
<stop offset="1" stop-color="#FFDB6F"/>
</linearGradient>
</defs>
</svg>
