<svg width="360" height="250" viewBox="0 0 360 250" fill="none" xmlns="http://www.w3.org/2000/svg">
<g style="mix-blend-mode:plus-lighter">
<path d="M200.386 41.8842C84.9902 -48.319 168.266 -214.288 305.403 -212.652C226.887 -263.093 166.283 -280.188 128.654 -262.08C122.121 -258.936 116.113 -254.704 110.576 -249.316C87.5669 -225.861 74.7842 -188.556 77.1397 -136.076C80.0145 -72.7208 127.364 16.2247 200.352 41.9006L200.386 41.8842Z" fill="white"/>
<path d="M289.895 -356.329C440.163 -288.397 492.927 -125.334 611.724 -28.9324C614.827 -26.403 618.148 -23.7689 621.645 -21.0731C645.285 -3.59987 671.705 7.63329 697.605 13.5643C712.746 14.5956 725.241 13.003 734.771 9.29687C736.215 8.72763 737.609 8.1408 738.92 7.46825C738.988 7.4355 739.056 7.40276 739.099 7.36119C740.332 6.74657 741.483 6.04619 742.583 5.32822C742.839 5.16321 743.129 4.98187 743.384 4.81687C745.645 3.28897 747.613 1.54554 749.288 -0.328974C749.477 -0.545644 749.667 -0.762224 749.856 -0.978915C750.595 -1.87963 751.285 -2.79811 751.898 -3.74297C751.934 -3.84376 752.011 -3.90172 752.071 -3.9937C752.72 -5.03934 753.294 -6.11143 753.775 -7.24405C753.864 -7.49604 753.986 -7.76442 754.099 -8.00756C754.503 -8.99783 754.856 -10.0057 755.167 -11.0565C755.229 -11.2329 755.291 -11.4093 755.352 -11.5857C755.658 -12.7801 755.871 -14.0349 756.034 -15.3075C756.071 -15.5771 756.084 -15.8556 756.106 -16.1592C756.207 -17.2554 756.257 -18.3692 756.232 -19.5095C756.236 -19.7628 756.249 -20.0412 756.228 -20.3033C756.189 -21.6464 756.049 -23.0248 755.868 -24.4462C755.821 -24.7171 755.759 -25.022 755.712 -25.2929C755.511 -26.4949 755.259 -27.7147 754.957 -28.952C754.877 -29.291 754.798 -29.6299 754.694 -29.9777C754.277 -31.4532 753.81 -32.9464 753.251 -34.5001C753.145 -34.7635 753.039 -35.0268 752.933 -35.2902C752.413 -36.6322 751.834 -37.9666 751.204 -39.3186C751.008 -39.7269 750.836 -40.1265 750.64 -40.5347C749.845 -42.1426 749 -43.7681 748.045 -45.4038C747.938 -45.5827 747.806 -45.7705 747.699 -45.9494C746.81 -47.449 745.87 -48.9662 744.846 -50.4847C744.549 -50.9283 744.251 -51.3719 743.954 -51.8154C742.773 -53.5305 741.541 -55.2633 740.174 -57.0149C696.363 -113.66 583.997 -40.7932 542.598 -114.501C543.597 -113.557 544.69 -112.721 545.801 -111.936C545.985 -111.815 546.161 -111.669 546.345 -111.548C547.414 -110.805 548.544 -110.155 549.708 -109.521C549.926 -109.416 550.161 -109.278 550.378 -109.173C551.585 -108.581 552.801 -108.013 554.077 -107.538C554.203 -107.494 554.355 -107.441 554.481 -107.397C555.74 -106.956 557.009 -106.54 558.364 -106.207C558.54 -106.145 558.691 -106.092 558.876 -106.055C560.256 -105.714 561.653 -105.422 563.102 -105.198C563.372 -105.16 563.667 -105.113 563.962 -105.067C565.41 -104.842 566.902 -104.659 568.412 -104.526C568.656 -104.497 568.909 -104.493 569.154 -104.464C570.697 -104.348 572.275 -104.248 573.879 -104.224C573.954 -104.198 574.022 -104.23 574.098 -104.204C575.752 -104.162 577.458 -104.187 579.198 -104.228C579.486 -104.241 579.798 -104.244 580.085 -104.257C581.775 -104.316 583.474 -104.4 585.215 -104.525C585.536 -104.554 585.883 -104.574 586.204 -104.603C588.004 -104.737 589.814 -104.895 591.666 -105.095C591.784 -105.11 591.928 -105.116 592.046 -105.131C593.865 -105.315 595.726 -105.54 597.621 -105.782C597.883 -105.803 598.154 -105.85 598.416 -105.871C600.311 -106.112 602.249 -106.395 604.212 -106.67C604.601 -106.731 604.957 -106.777 605.346 -106.838C607.318 -107.138 609.29 -107.437 611.296 -107.753C611.567 -107.8 611.838 -107.846 612.075 -107.876C614.115 -108.209 616.163 -108.566 618.263 -108.906C618.356 -108.93 618.474 -108.945 618.567 -108.969C620.853 -109.356 623.173 -109.76 625.518 -110.156C627.651 -110.512 629.793 -110.893 631.935 -111.274C632.452 -111.376 632.96 -111.453 633.501 -111.546C635.703 -111.935 637.929 -112.315 640.155 -112.695C640.308 -112.727 640.452 -112.733 640.604 -112.764C642.703 -113.104 644.811 -113.469 646.936 -113.8C647.384 -113.869 647.833 -113.938 648.256 -114.016C650.415 -114.364 652.598 -114.702 654.798 -115.007C655.272 -115.067 655.755 -115.153 656.228 -115.213C658.462 -115.534 660.722 -115.846 663.006 -116.149C663.302 -116.187 663.623 -116.216 663.928 -116.279C666.094 -116.567 668.277 -116.821 670.484 -117.066C670.805 -117.095 671.101 -117.133 671.423 -117.162C673.715 -117.406 675.998 -117.624 678.306 -117.834C678.796 -117.861 679.27 -117.921 679.76 -117.947C682.035 -118.141 684.325 -118.301 686.632 -118.426C687.063 -118.445 687.469 -118.473 687.9 -118.491C690.232 -118.608 692.59 -118.716 694.93 -118.773C695.014 -118.772 695.132 -118.787 695.217 -118.786C697.616 -118.851 699.997 -118.866 702.395 -118.846C702.842 -118.831 703.298 -118.841 703.746 -118.826C706.059 -118.808 708.38 -118.73 710.692 -118.628C711.164 -118.604 711.637 -118.58 712.109 -118.556C714.472 -118.435 716.851 -118.281 719.228 -118.043C719.472 -118.014 719.717 -117.985 719.995 -117.972C722.263 -117.743 724.522 -117.49 726.789 -117.177C727.143 -117.138 727.522 -117.09 727.868 -117.025C730.21 -116.686 732.534 -116.296 734.841 -115.856C735.321 -115.773 735.818 -115.655 736.298 -115.572C738.621 -115.098 740.936 -114.598 743.249 -114.015C743.636 -113.907 744.022 -113.8 744.393 -113.727C746.672 -113.127 748.942 -112.501 751.211 -111.792C751.388 -111.73 751.589 -111.659 751.775 -111.623C754.119 -110.886 756.454 -110.04 758.78 -109.169C759.057 -109.072 759.309 -108.984 759.586 -108.887C759.762 -108.825 759.93 -108.738 760.081 -108.685C774.343 -103.125 788.278 -94.9343 801.475 -83.1835C807.736 -77.3132 812.821 -72.4486 817.097 -67.0475C817.213 -66.8937 817.312 -66.774 817.428 -66.6202C822.389 -60.7527 827.231 -54.3044 831.91 -47.1492C848.761 -21.2758 853.765 10.1516 848.719 38.3704C848.719 38.3704 848.728 38.3453 848.737 38.3201C848.711 38.3957 848.675 38.4965 848.699 38.5897C848.673 38.6653 848.663 38.7749 848.661 38.8593C848.626 38.9601 848.6 39.0357 848.59 39.1453C836.084 106.675 765.976 155.163 663.069 63.3075C565.559 -23.6865 177.342 -459.738 64.8344 -232.436C94.717 -334.559 173.727 -408.868 289.955 -356.337L289.895 -356.329ZM200.564 41.862C241.311 73.8135 324.32 80.6508 466.372 23.0182C500.789 9.0748 537.595 -14.357 578.6 -7.20955C519.245 -51.6185 468.622 -15.7131 422.327 3.06618C319.688 44.6862 247.897 52.6685 200.573 41.8368L200.564 41.862Z" fill="white"/>
</g>
</svg>
