<svg width="360" height="457" viewBox="0 0 360 457" fill="none" xmlns="http://www.w3.org/2000/svg">
<g style="mix-blend-mode:plus-lighter">
<path d="M-34.1047 57.6707C116.163 125.603 168.927 288.666 287.724 385.068C290.827 387.597 294.148 390.231 297.645 392.927C321.285 410.4 347.705 421.633 373.605 427.564C388.746 428.596 401.241 427.003 410.771 423.297C412.215 422.728 413.609 422.141 414.92 421.468C414.988 421.435 415.056 421.403 415.099 421.361C416.332 420.747 417.483 420.046 418.583 419.328C418.839 419.163 419.129 418.982 419.384 418.817C421.645 417.289 423.613 415.546 425.288 413.671C425.477 413.454 425.667 413.238 425.856 413.021C426.595 412.12 427.285 411.202 427.898 410.257C427.934 410.156 428.011 410.098 428.071 410.006C428.72 408.961 429.294 407.889 429.775 406.756C429.864 406.504 429.986 406.236 430.099 405.992C430.503 405.002 430.856 403.994 431.167 402.944C431.229 402.767 431.291 402.591 431.352 402.414C431.658 401.22 431.871 399.965 432.034 398.692C432.071 398.423 432.084 398.144 432.106 397.841C432.207 396.745 432.257 395.631 432.232 394.49C432.236 394.237 432.249 393.959 432.228 393.697C432.189 392.354 432.049 390.975 431.868 389.554C431.821 389.283 431.759 388.978 431.712 388.707C431.511 387.505 431.259 386.285 430.957 385.048C430.877 384.709 430.798 384.37 430.694 384.022C430.277 382.547 429.81 381.054 429.251 379.5C429.145 379.237 429.039 378.973 428.933 378.71C428.413 377.368 427.834 376.033 427.204 374.681C427.008 374.273 426.836 373.874 426.64 373.465C425.845 371.857 425 370.232 424.045 368.596C423.938 368.417 423.806 368.23 423.699 368.051C422.81 366.551 421.87 365.034 420.846 363.515C420.549 363.072 420.251 362.628 419.954 362.185C418.773 360.469 417.541 358.737 416.174 356.985C372.363 300.34 259.997 373.207 218.598 299.499C219.597 300.443 220.69 301.279 221.801 302.064C221.985 302.185 222.161 302.331 222.345 302.452C223.414 303.195 224.544 303.845 225.708 304.479C225.926 304.584 226.161 304.722 226.378 304.827C227.585 305.419 228.801 305.987 230.077 306.462C230.203 306.506 230.355 306.559 230.481 306.603C231.74 307.044 233.009 307.46 234.364 307.793C234.54 307.855 234.691 307.908 234.876 307.945C236.256 308.286 237.653 308.578 239.102 308.802C239.372 308.84 239.667 308.887 239.962 308.933C241.41 309.158 242.902 309.341 244.412 309.474C244.656 309.503 244.909 309.507 245.154 309.536C246.697 309.652 248.275 309.752 249.879 309.776C249.954 309.802 250.022 309.77 250.098 309.796C251.752 309.838 253.458 309.813 255.198 309.772C255.486 309.759 255.798 309.756 256.085 309.743C257.775 309.684 259.474 309.6 261.215 309.475C261.536 309.446 261.883 309.426 262.204 309.397C264.004 309.263 265.814 309.105 267.666 308.905C267.784 308.89 267.928 308.884 268.046 308.869C269.865 308.685 271.726 308.46 273.621 308.218C273.883 308.197 274.154 308.15 274.416 308.129C276.311 307.888 278.249 307.605 280.212 307.33C280.601 307.269 280.957 307.223 281.346 307.162C283.318 306.862 285.29 306.563 287.296 306.247C287.567 306.2 287.838 306.154 288.075 306.124C290.115 305.791 292.163 305.434 294.263 305.094C294.356 305.07 294.474 305.055 294.567 305.031C296.853 304.644 299.173 304.24 301.518 303.844C303.651 303.488 305.793 303.107 307.935 302.726C308.452 302.624 308.96 302.547 309.501 302.454C311.703 302.065 313.929 301.685 316.155 301.305C316.308 301.273 316.452 301.267 316.604 301.236C318.703 300.896 320.811 300.531 322.936 300.2C323.384 300.131 323.833 300.062 324.256 299.984C326.415 299.636 328.598 299.298 330.798 298.993C331.272 298.933 331.755 298.847 332.228 298.787C334.462 298.466 336.722 298.154 339.006 297.851C339.302 297.813 339.623 297.784 339.928 297.721C342.094 297.433 344.277 297.179 346.484 296.934C346.805 296.905 347.101 296.867 347.423 296.838C349.715 296.594 351.998 296.376 354.306 296.166C354.796 296.139 355.27 296.079 355.76 296.053C358.035 295.859 360.325 295.699 362.632 295.574C363.063 295.555 363.469 295.527 363.9 295.509C366.232 295.392 368.59 295.284 370.93 295.227C371.014 295.228 371.132 295.213 371.217 295.214C373.616 295.149 375.997 295.134 378.395 295.154C378.842 295.169 379.298 295.159 379.746 295.174C382.059 295.192 384.38 295.27 386.692 295.372C387.164 295.396 387.637 295.42 388.109 295.444C390.472 295.565 392.851 295.719 395.228 295.957C395.472 295.986 395.717 296.015 395.995 296.028C398.263 296.257 400.522 296.51 402.789 296.823C403.143 296.862 403.522 296.91 403.868 296.975C406.21 297.314 408.534 297.704 410.841 298.144C411.321 298.227 411.818 298.345 412.298 298.428C414.621 298.902 416.936 299.402 419.249 299.985C419.636 300.093 420.022 300.2 420.393 300.273C422.672 300.873 424.942 301.499 427.211 302.208C427.388 302.27 427.589 302.341 427.775 302.377C430.119 303.114 432.454 303.96 434.78 304.831C435.057 304.928 435.309 305.016 435.586 305.113C435.762 305.175 435.93 305.262 436.081 305.315C450.343 310.875 464.278 319.066 477.475 330.817C483.736 336.687 488.821 341.551 493.097 346.953C493.213 347.106 493.312 347.226 493.428 347.38C498.389 353.247 503.231 359.696 507.91 366.851C524.761 392.724 529.765 424.152 524.719 452.37C524.719 452.37 524.728 452.345 524.737 452.32C524.711 452.396 524.675 452.496 524.699 452.59C524.673 452.665 524.663 452.775 524.661 452.859C524.626 452.96 524.6 453.036 524.59 453.145C512.084 520.675 441.976 569.163 339.069 477.308C241.559 390.313 -146.658 -45.7378 -259.166 181.564C-229.283 79.4408 -150.273 5.13196 -34.0454 57.6631L-34.1047 57.6707ZM-123.436 455.862C-82.6887 487.813 0.320006 494.651 142.372 437.018C176.789 423.075 213.595 399.643 254.6 406.79C195.245 362.382 144.622 398.287 98.3274 417.066C-4.31174 458.686 -76.1035 466.669 -123.427 455.837L-123.436 455.862Z" fill="white"/>
</g>
</svg>
