<svg width="20" height="21" viewBox="0 0 20 21" fill="none" xmlns="http://www.w3.org/2000/svg">
<path d="M10 9.26664C9.65833 9.26664 9.375 8.9833 9.375 8.64164V5.86664C9.375 5.52497 9.65833 5.24164 10 5.24164C10.3417 5.24164 10.625 5.52497 10.625 5.86664V8.64164C10.625 8.99164 10.3417 9.26664 10 9.26664Z" fill="#FFDB6F"/>
<path d="M10.0167 17.4583C7.86666 17.4583 5.72499 17.1167 3.68332 16.4333C2.92499 16.1833 2.34999 15.6417 2.09999 14.9583C1.84999 14.275 1.93332 13.4917 2.34166 12.8083L3.39999 11.0417C3.63332 10.65 3.84166 9.91666 3.84166 9.45833V7.70833C3.84166 4.29999 6.60832 1.53333 10.0167 1.53333C13.425 1.53333 16.1917 4.29999 16.1917 7.70833V9.45833C16.1917 9.90833 16.4 10.65 16.6333 11.0417L17.6917 12.8083C18.0833 13.4583 18.15 14.2333 17.8917 14.9417C17.6333 15.65 17.0667 16.1917 16.35 16.4333C14.3083 17.125 12.1667 17.4583 10.0167 17.4583ZM10.0167 2.79166C7.29999 2.79166 5.09166 4.99999 5.09166 7.71666V9.46666C5.09166 10.1417 4.82499 11.1167 4.47499 11.6917L3.41666 13.4667C3.19999 13.825 3.14999 14.2083 3.27499 14.5417C3.39999 14.875 3.68332 15.125 4.08332 15.2583C7.91666 16.5333 12.1333 16.5333 15.9667 15.2583C16.325 15.1417 16.6 14.875 16.725 14.525C16.8583 14.175 16.8167 13.7917 16.625 13.4667L15.5667 11.7C15.2167 11.125 14.95 10.15 14.95 9.47499V7.72499C14.9417 4.99999 12.7333 2.79166 10.0167 2.79166Z" fill="#FFDB6F"/>
<path d="M9.99998 19.5833C9.10831 19.5833 8.23331 19.2167 7.59998 18.5833C6.96664 17.95 6.59998 17.075 6.59998 16.1833H7.84998C7.84998 16.75 8.08331 17.3 8.48331 17.7C8.88331 18.1 9.43331 18.3333 9.99998 18.3333C11.1833 18.3333 12.15 17.3667 12.15 16.1833H13.4C13.4 18.0583 11.875 19.5833 9.99998 19.5833Z" fill="#FFDB6F"/>
</svg>
