<svg width="21" height="20" viewBox="0 0 21 20" fill="none" xmlns="http://www.w3.org/2000/svg">
<g id="vuesax/outline/crown">
<g id="crown">
<path id="Vector" d="M14.6667 17.5333H6.33334C3.69167 17.5333 1.54167 15.3833 1.54167 12.7417V4.75832C1.54167 3.67499 2.04167 3.29999 2.34167 3.17499C2.64167 3.04999 3.25834 2.95832 4.02501 3.72499L6.18334 5.88332C6.26667 5.96666 6.40001 5.96666 6.47501 5.88332L9.46667 2.89166C10.0167 2.34166 10.9833 2.34166 11.525 2.89166L14.5167 5.88332C14.6 5.96666 14.7333 5.96666 14.8083 5.88332L16.9667 3.72499C17.7333 2.95832 18.35 3.05832 18.65 3.17499C18.95 3.29999 19.45 3.66666 19.45 4.75832V12.75C19.4583 15.6083 17.5333 17.5333 14.6667 17.5333ZM2.84167 4.36666C2.81667 4.43332 2.79167 4.55832 2.79167 4.75832V12.75C2.79167 14.7 4.38334 16.2917 6.33334 16.2917H14.6667C16.8167 16.2917 18.2083 14.9 18.2083 12.75V4.75832C18.2083 4.55832 18.1833 4.44166 18.1583 4.37499C18.0917 4.40832 17.9917 4.47499 17.85 4.61666L15.6917 6.77499C15.1417 7.32499 14.175 7.32499 13.6333 6.77499L10.6417 3.78332C10.5583 3.69999 10.425 3.69999 10.35 3.78332L7.36667 6.76666C6.81667 7.31666 5.85001 7.31666 5.30834 6.76666L3.15001 4.60832C3.00834 4.46666 2.90001 4.39999 2.84167 4.36666Z" fill="#FFDB6F"/>
</g>
</g>
</svg>
