<svg width="28" height="28" viewBox="0 0 28 28" fill="none" xmlns="http://www.w3.org/2000/svg">
<path d="M19.4833 23.0183H8.51667C7.65333 23.0183 6.77833 22.4 6.48667 21.595L1.65666 8.07333C1.06166 6.37 1.49333 5.58833 1.96 5.23833C2.42666 4.88833 3.30167 4.67833 4.77167 5.72833L9.32166 8.98333C9.46167 9.065 9.59 9.1 9.68333 9.07666C9.78833 9.04167 9.87 8.94833 9.92833 8.785L11.9817 3.31333C12.6 1.68 13.51 1.435 14 1.435C14.49 1.435 15.4 1.68 16.0183 3.31333L18.0717 8.785C18.13 8.93667 18.2117 9.04167 18.3167 9.07666C18.4217 9.11166 18.55 9.07666 18.6783 8.97166L22.9483 5.92666C24.5117 4.80666 25.4217 5.02833 25.9233 5.39C26.4133 5.76333 26.8683 6.59166 26.2267 8.4L21.5133 21.595C21.2217 22.4 20.3467 23.0183 19.4833 23.0183ZM3.12666 6.77833C3.15 6.94166 3.19666 7.175 3.31333 7.47833L8.14333 21C8.19 21.1167 8.4 21.2683 8.51667 21.2683H19.4833C19.6117 21.2683 19.8217 21.1167 19.8567 21L24.57 7.81666C24.7333 7.37333 24.78 7.07 24.7917 6.895C24.6167 6.95333 24.3483 7.08166 23.9633 7.36166L19.6933 10.4067C19.11 10.815 18.4217 10.9433 17.8033 10.7567C17.185 10.57 16.6833 10.08 16.4267 9.415L14.3733 3.94333C14.2217 3.535 14.0817 3.33666 14 3.24333C13.9183 3.33666 13.7783 3.535 13.6267 3.93166L11.5733 9.40333C11.3283 10.0683 10.8267 10.5583 10.1967 10.745C9.57833 10.9317 8.87833 10.8033 8.30666 10.395L3.75666 7.14C3.48833 6.95333 3.27833 6.83666 3.12666 6.77833Z" fill="#282828"/>
<path d="M20.4167 26.5417H7.58334C7.105 26.5417 6.70834 26.145 6.70834 25.6667C6.70834 25.1884 7.105 24.7917 7.58334 24.7917H20.4167C20.895 24.7917 21.2917 25.1884 21.2917 25.6667C21.2917 26.145 20.895 26.5417 20.4167 26.5417Z" fill="#282828"/>
<path d="M16.9167 17.2083H11.0833C10.605 17.2083 10.2083 16.8116 10.2083 16.3333C10.2083 15.855 10.605 15.4583 11.0833 15.4583H16.9167C17.395 15.4583 17.7917 15.855 17.7917 16.3333C17.7917 16.8116 17.395 17.2083 16.9167 17.2083Z" fill="#282828"/>
</svg>
