<svg xmlns="http://www.w3.org/2000/svg" width="20" height="20" viewBox="0 0 20 20" fill="none">
  <path d="M15.8333 15C16.6069 15 17.3487 14.6927 17.8957 14.1457C18.4427 13.5987 18.75 12.8569 18.75 12.0833C18.75 11.3098 18.4427 10.5679 17.8957 10.0209C17.3487 9.47396 16.6069 9.16667 15.8333 9.16667H15C15.1216 8.62496 15.1234 8.06701 15.0054 7.52466C14.8874 6.98232 14.6519 6.4662 14.3123 6.00577C13.9727 5.54535 13.5356 5.14964 13.0261 4.84123C12.5165 4.53283 11.9445 4.31777 11.3426 4.20833C10.7407 4.0989 10.1207 4.09723 9.51814 4.20343C8.91553 4.30962 8.34206 4.5216 7.83048 4.82726C6.79729 5.44457 6.0789 6.40598 5.83332 7.5C4.94495 7.46442 4.07127 7.72533 3.36188 8.23808C2.65249 8.75083 2.15151 9.48352 1.94472 10.3107C1.73793 11.1379 1.83818 12.0081 2.22832 12.7723C2.61847 13.5366 3.27423 14.1473 4.08332 14.5M10 10.8333V18.3333M10 18.3333L7.5 15.8333M10 18.3333L12.5 15.8333" stroke="white" stroke-width="1.5" stroke-linecap="round" stroke-linejoin="round"/>
</svg>