<svg width="20" height="20" viewBox="0 0 20 20" fill="none" xmlns="http://www.w3.org/2000/svg">
<path d="M10 17.5C8.67392 17.5 7.40215 16.9732 6.46447 16.0355C5.52678 15.0979 5 13.8261 5 12.5C6.32608 12.5 7.59785 13.0268 8.53553 13.9645C9.47322 14.9021 10 16.1739 10 17.5ZM10 17.5C11.3261 17.5 12.5979 16.9732 13.5355 16.0355C14.4732 15.0979 15 13.8261 15 12.5C13.6739 12.5 12.4021 13.0268 11.4645 13.9645C10.5268 14.9021 10 16.1739 10 17.5ZM10 17.5V9.16667M10 9.16667C8.89493 9.16667 7.83512 8.72768 7.05372 7.94628C6.27232 7.16488 5.83333 6.10507 5.83333 5V2.5L8.33333 4.16667L10 2.5L11.6667 4.16667L14.1667 2.5V5C14.1667 6.10507 13.7277 7.16488 12.9463 7.94628C12.1649 8.72768 11.1051 9.16667 10 9.16667Z" stroke="#FFDB6F" stroke-width="1.5" stroke-linecap="round" stroke-linejoin="round"/>
</svg>
