<svg width="20" height="21" viewBox="0 0 20 21" fill="none" xmlns="http://www.w3.org/2000/svg">
<path d="M10 19.4584C5.05835 19.4584 1.04169 15.4417 1.04169 10.5C1.04169 5.55835 5.05835 1.54169 10 1.54169C14.9417 1.54169 18.9584 5.55835 18.9584 10.5C18.9584 15.4417 14.9417 19.4584 10 19.4584ZM10 2.79169C5.75002 2.79169 2.29169 6.25002 2.29169 10.5C2.29169 14.75 5.75002 18.2084 10 18.2084C14.25 18.2084 17.7084 14.75 17.7084 10.5C17.7084 6.25002 14.25 2.79169 10 2.79169Z" fill="#FFDB6F"/>
<path d="M7.50001 18.625H6.66668C6.32501 18.625 6.04168 18.3417 6.04168 18C6.04168 17.6583 6.30835 17.3833 6.65001 17.375C5.34168 12.9083 5.34168 8.09167 6.65001 3.625C6.30835 3.61667 6.04168 3.34167 6.04168 3C6.04168 2.65833 6.32501 2.375 6.66668 2.375H7.50001C7.70001 2.375 7.89168 2.475 8.00835 2.63333C8.12501 2.8 8.15835 3.00833 8.09168 3.2C6.52501 7.90833 6.52501 13.0917 8.09168 17.8083C8.15835 18 8.12501 18.2083 8.00835 18.375C7.89168 18.525 7.70001 18.625 7.50001 18.625Z" fill="#FFDB6F"/>
<path d="M12.5 18.625C12.4333 18.625 12.3667 18.6167 12.3 18.5917C11.975 18.4833 11.7917 18.125 11.9083 17.8C13.475 13.0917 13.475 7.90832 11.9083 3.19165C11.8 2.86665 11.975 2.50832 12.3 2.39999C12.6333 2.29165 12.9833 2.46665 13.0917 2.79165C14.75 7.75832 14.75 13.225 13.0917 18.1833C13.0083 18.4583 12.7583 18.625 12.5 18.625Z" fill="#FFDB6F"/>
<path d="M10 14.8333C7.675 14.8333 5.35833 14.5083 3.125 13.85C3.11667 14.1833 2.84167 14.4583 2.5 14.4583C2.15833 14.4583 1.875 14.175 1.875 13.8333V13C1.875 12.8 1.975 12.6083 2.13333 12.4916C2.3 12.375 2.50833 12.3416 2.7 12.4083C7.40833 13.975 12.6 13.975 17.3083 12.4083C17.5 12.3416 17.7083 12.375 17.875 12.4916C18.0417 12.6083 18.1333 12.8 18.1333 13V13.8333C18.1333 14.175 17.85 14.4583 17.5083 14.4583C17.1667 14.4583 16.8917 14.1916 16.8833 13.85C14.6417 14.5083 12.325 14.8333 10 14.8333Z" fill="#FFDB6F"/>
<path d="M17.5 8.62503C17.4334 8.62503 17.3667 8.6167 17.3 8.5917C12.5917 7.02503 7.40002 7.02503 2.69169 8.5917C2.35836 8.70003 2.00836 8.52503 1.90002 8.20003C1.80002 7.8667 1.97502 7.5167 2.30002 7.40836C7.26669 5.75003 12.7334 5.75003 17.6917 7.40836C18.0167 7.5167 18.2 7.87503 18.0834 8.20003C18.0084 8.45836 17.7584 8.62503 17.5 8.62503Z" fill="#FFDB6F"/>
</svg>
