<svg width="18" height="19" viewBox="0 0 18 19" fill="none" xmlns="http://www.w3.org/2000/svg">
<path d="M13.1999 17.4201H4.79988C3.43488 17.4201 2.18988 16.3701 1.96488 15.0201L0.967383 9.05008C0.809883 8.12008 1.25989 6.92758 2.00239 6.33508L7.19989 2.17255C8.20489 1.36255 9.78738 1.37005 10.7999 2.18005L15.9974 6.33508C16.7324 6.92758 17.1824 8.12008 17.0324 9.05008L16.0349 15.0201C15.8099 16.3476 14.5424 17.4201 13.1999 17.4201ZM8.99239 2.70506C8.59489 2.70506 8.19738 2.82504 7.90488 3.05754L2.70739 7.22008C2.27989 7.56508 1.98739 8.33004 2.07739 8.87004L3.07489 14.8401C3.20989 15.6276 3.99738 16.2951 4.79988 16.2951H13.1999C14.0024 16.2951 14.7899 15.6276 14.9249 14.8326L15.9224 8.86258C16.0124 8.32258 15.7124 7.55007 15.2924 7.21257L10.0949 3.05754C9.79489 2.82504 9.39739 2.70506 8.99239 2.70506Z" fill="white"/>
<path d="M9 12.6875C7.6575 12.6875 6.5625 11.5925 6.5625 10.25C6.5625 8.9075 7.6575 7.8125 9 7.8125C10.3425 7.8125 11.4375 8.9075 11.4375 10.25C11.4375 11.5925 10.3425 12.6875 9 12.6875ZM9 8.9375C8.28 8.9375 7.6875 9.53 7.6875 10.25C7.6875 10.97 8.28 11.5625 9 11.5625C9.72 11.5625 10.3125 10.97 10.3125 10.25C10.3125 9.53 9.72 8.9375 9 8.9375Z" fill="#FFDB6F"/>
</svg>
