<svg width="20" height="20" viewBox="0 0 20 20" fill="none" xmlns="http://www.w3.org/2000/svg">
<path d="M6.66667 3.33334V16.6667M13.3333 3.33334V16.6667M3.33334 6.66668H6.66667M3.33334 13.3333H6.66667M3.33334 10H16.6667M13.3333 6.66668H16.6667M13.3333 13.3333H16.6667M3.33334 5.00001C3.33334 4.55798 3.50893 4.13406 3.82149 3.8215C4.13405 3.50894 4.55798 3.33334 5 3.33334H15C15.442 3.33334 15.866 3.50894 16.1785 3.8215C16.4911 4.13406 16.6667 4.55798 16.6667 5.00001V15C16.6667 15.442 16.4911 15.866 16.1785 16.1785C15.866 16.4911 15.442 16.6667 15 16.6667H5C4.55798 16.6667 4.13405 16.4911 3.82149 16.1785C3.50893 15.866 3.33334 15.442 3.33334 15V5.00001Z" stroke="#FFDB6F" stroke-width="1.5" stroke-linecap="round" stroke-linejoin="round"/>
</svg>
