<svg width="20" height="20" viewBox="0 0 20 20" fill="none" xmlns="http://www.w3.org/2000/svg">
<path d="M6.66667 7.49998H13.3333M6.66667 10.8333H11.6667M15 3.33331C15.663 3.33331 16.2989 3.59671 16.7678 4.06555C17.2366 4.53439 17.5 5.17027 17.5 5.83331V12.5C17.5 13.163 17.2366 13.7989 16.7678 14.2677C16.2989 14.7366 15.663 15 15 15H10.8333L6.66667 17.5V15H5C4.33696 15 3.70107 14.7366 3.23223 14.2677C2.76339 13.7989 2.5 13.163 2.5 12.5V5.83331C2.5 5.17027 2.76339 4.53439 3.23223 4.06555C3.70107 3.59671 4.33696 3.33331 5 3.33331H15Z" stroke="#FFDB6F" stroke-width="1.5" stroke-linecap="round" stroke-linejoin="round"/>
</svg>
