<svg width="20" height="21" viewBox="0 0 20 21" fill="none" xmlns="http://www.w3.org/2000/svg">
<path d="M10 18H6.66667C6.22464 18 5.80072 17.8244 5.48816 17.5118C5.17559 17.1993 5 16.7754 5 16.3333V4.66667C5 4.22464 5.17559 3.80072 5.48816 3.48816C5.80072 3.17559 6.22464 3 6.66667 3H13.3333C13.7754 3 14.1993 3.17559 14.5118 3.48816C14.8244 3.80072 15 4.22464 15 4.66667V10.0833M9.16667 3.83333H10.8333M10 14.6667V14.675M15.8342 18C15.3921 18 14.9682 17.8244 14.6557 17.5118C14.3431 17.1993 14.1675 16.7754 14.1675 16.3333C14.1675 15.8913 14.3431 15.4674 14.6557 15.1548C14.9682 14.8423 15.3921 14.6667 15.8342 14.6667M15.8342 18C16.2762 18 16.7001 17.8244 17.0127 17.5118C17.3252 17.1993 17.5008 16.7754 17.5008 16.3333C17.5008 15.8913 17.3252 15.4674 17.0127 15.1548C16.7001 14.8423 16.2762 14.6667 15.8342 14.6667M15.8342 18V19.25M15.8342 14.6667V13.4167M18.36 14.875L17.2775 15.5M14.3917 17.1667L13.3083 17.7917M13.3083 14.875L14.3917 15.5M17.2775 17.1667L18.3608 17.7917" stroke="#FFDB6F" stroke-width="1.5" stroke-linecap="round" stroke-linejoin="round"/>
</svg>
