<svg width="18" height="19" viewBox="0 0 18 19" fill="none" xmlns="http://www.w3.org/2000/svg">
<path d="M11.25 17.5625H6.75C2.6775 17.5625 0.9375 15.8225 0.9375 11.75V7.25C0.9375 3.1775 2.6775 1.4375 6.75 1.4375H11.25C15.3225 1.4375 17.0625 3.1775 17.0625 7.25V11.75C17.0625 15.8225 15.3225 17.5625 11.25 17.5625ZM6.75 2.5625C3.2925 2.5625 2.0625 3.7925 2.0625 7.25V11.75C2.0625 15.2075 3.2925 16.4375 6.75 16.4375H11.25C14.7075 16.4375 15.9375 15.2075 15.9375 11.75V7.25C15.9375 3.7925 14.7075 2.5625 11.25 2.5625H6.75Z" fill="white"/>
<path d="M11.625 8.375C10.695 8.375 9.9375 7.6175 9.9375 6.6875C9.9375 5.7575 10.695 5 11.625 5C12.555 5 13.3125 5.7575 13.3125 6.6875C13.3125 7.6175 12.555 8.375 11.625 8.375ZM11.625 6.125C11.3175 6.125 11.0625 6.38 11.0625 6.6875C11.0625 6.995 11.3175 7.25 11.625 7.25C11.9325 7.25 12.1875 6.995 12.1875 6.6875C12.1875 6.38 11.9325 6.125 11.625 6.125Z" fill="#FFDB6F"/>
<path d="M6.375 8.375C5.445 8.375 4.6875 7.6175 4.6875 6.6875C4.6875 5.7575 5.445 5 6.375 5C7.305 5 8.0625 5.7575 8.0625 6.6875C8.0625 7.6175 7.305 8.375 6.375 8.375ZM6.375 6.125C6.0675 6.125 5.8125 6.38 5.8125 6.6875C5.8125 6.995 6.0675 7.25 6.375 7.25C6.6825 7.25 6.9375 6.995 6.9375 6.6875C6.9375 6.38 6.6825 6.125 6.375 6.125Z" fill="#FFDB6F"/>
<path d="M9 15.0875C6.825 15.0875 5.0625 13.3175 5.0625 11.15C5.0625 10.4675 5.6175 9.91248 6.3 9.91248H11.7C12.3825 9.91248 12.9375 10.4675 12.9375 11.15C12.9375 13.3175 11.175 15.0875 9 15.0875ZM6.3 11.0375C6.24 11.0375 6.1875 11.09 6.1875 11.15C6.1875 12.7025 7.4475 13.9625 9 13.9625C10.5525 13.9625 11.8125 12.7025 11.8125 11.15C11.8125 11.09 11.76 11.0375 11.7 11.0375H6.3Z" fill="#FFDB6F"/>
</svg>
