<svg width="18" height="19" viewBox="0 0 18 19" fill="none" xmlns="http://www.w3.org/2000/svg">
<path d="M9 10.0625C6.6225 10.0625 4.6875 8.1275 4.6875 5.75C4.6875 3.3725 6.6225 1.4375 9 1.4375C11.3775 1.4375 13.3125 3.3725 13.3125 5.75C13.3125 8.1275 11.3775 10.0625 9 10.0625ZM9 2.5625C7.245 2.5625 5.8125 3.995 5.8125 5.75C5.8125 7.505 7.245 8.9375 9 8.9375C10.755 8.9375 12.1875 7.505 12.1875 5.75C12.1875 3.995 10.755 2.5625 9 2.5625Z" fill="#919191"/>
<path d="M15.4426 17.5625C15.1351 17.5625 14.8801 17.3075 14.8801 17C14.8801 14.4125 12.2401 12.3125 9.00011 12.3125C5.76011 12.3125 3.12012 14.4125 3.12012 17C3.12012 17.3075 2.86512 17.5625 2.55762 17.5625C2.25012 17.5625 1.99512 17.3075 1.99512 17C1.99512 13.7975 5.13761 11.1875 9.00011 11.1875C12.8626 11.1875 16.0051 13.7975 16.0051 17C16.0051 17.3075 15.7501 17.5625 15.4426 17.5625Z" fill="#919191"/>
</svg>
