<svg width="18" height="19" viewBox="0 0 18 19" fill="none" xmlns="http://www.w3.org/2000/svg">
<path d="M10.3197 13.8125H7.67219C6.84719 13.8125 6.19469 13.4075 5.82719 12.6725L5.15969 11.33C5.00219 11.0075 4.67969 10.8125 4.31969 10.8125H1.49219C1.18469 10.8125 0.929688 10.5575 0.929688 10.25C0.929688 9.9425 1.19219 9.6875 1.49969 9.6875H4.31969C5.10719 9.6875 5.81219 10.1225 6.16469 10.8275L6.83219 12.17C7.00469 12.515 7.28219 12.6875 7.67219 12.6875H10.3197C10.6797 12.6875 11.0022 12.4925 11.1597 12.17L11.8272 10.8275C12.1797 10.1225 12.8847 9.6875 13.6722 9.6875H16.4772C16.7847 9.6875 17.0397 9.9425 17.0397 10.25C17.0397 10.5575 16.7847 10.8125 16.4772 10.8125H13.6722C13.3122 10.8125 12.9897 11.0075 12.8322 11.33L12.1647 12.6725C11.8122 13.3775 11.1072 13.8125 10.3197 13.8125Z" fill="#FFDB6F"/>
<path d="M11.25 17.5625H6.75C2.6775 17.5625 0.9375 15.8225 0.9375 11.75V7.25C0.9375 3.1775 2.6775 1.4375 6.75 1.4375H11.25C15.3225 1.4375 17.0625 3.1775 17.0625 7.25V11.75C17.0625 15.8225 15.3225 17.5625 11.25 17.5625ZM6.75 2.5625C3.2925 2.5625 2.0625 3.7925 2.0625 7.25V11.75C2.0625 15.2075 3.2925 16.4375 6.75 16.4375H11.25C14.7075 16.4375 15.9375 15.2075 15.9375 11.75V7.25C15.9375 3.7925 14.7075 2.5625 11.25 2.5625H6.75Z" fill="white"/>
<path d="M10.2521 6.3125H7.75457C7.43957 6.3125 7.18457 6.0575 7.18457 5.75C7.18457 5.4425 7.43957 5.1875 7.74707 5.1875H10.2446C10.5521 5.1875 10.8071 5.4425 10.8071 5.75C10.8071 6.0575 10.5596 6.3125 10.2521 6.3125Z" fill="#FFDB6F"/>
<path d="M10.875 8.5625H7.125C6.8175 8.5625 6.5625 8.3075 6.5625 8C6.5625 7.6925 6.8175 7.4375 7.125 7.4375H10.875C11.1825 7.4375 11.4375 7.6925 11.4375 8C11.4375 8.3075 11.1825 8.5625 10.875 8.5625Z" fill="#FFDB6F"/>
</svg>
