<svg width="20" height="21" viewBox="0 0 20 21" fill="none" xmlns="http://www.w3.org/2000/svg">
<g id="receipt-2">
<path id="Vector" d="M9.58356 19.4584C8.92522 19.4584 8.30023 19.1167 7.86689 18.5334L7.01688 17.4167C6.84188 17.1834 6.60856 17.05 6.35856 17.0334C6.11689 17.0167 5.85858 17.1334 5.65025 17.3417C4.93358 18.1084 4.23354 18.475 3.57521 18.4584C3.12521 18.4417 2.73354 18.2417 2.43354 17.875C2.40021 17.8334 2.36689 17.775 2.34189 17.7167C2.01689 17.0167 1.86688 16.0667 1.86688 14.6417V6.37502C1.86688 4.95002 2.01689 4.00835 2.34189 3.30002C2.36689 3.25002 2.39188 3.20002 2.43354 3.15835C2.72521 2.78335 3.11691 2.58335 3.56691 2.55835C4.23358 2.53335 4.94191 2.91669 5.64191 3.66669C5.85024 3.89169 6.10022 4.00002 6.35022 3.98335C6.60022 3.96669 6.83353 3.83335 7.00853 3.60002L7.85855 2.47502C8.29188 1.89169 8.91688 1.55002 9.57522 1.55002C10.2335 1.55002 10.8585 1.89169 11.2919 2.47502L12.1336 3.59169C12.3086 3.83335 12.5502 3.96669 12.8086 3.98335C13.0502 4.00002 13.3085 3.88335 13.5169 3.66669C14.2002 2.93335 14.8752 2.55835 15.5252 2.55835C15.9919 2.55835 16.4252 2.76669 16.7252 3.15835C16.7586 3.20002 16.7919 3.25002 16.8169 3.30835C17.1419 4.00835 17.2919 4.95835 17.2919 6.38335V14.65C17.2919 16.075 17.1419 17.0167 16.8169 17.725C16.7836 17.8 16.7419 17.8667 16.6836 17.925C16.4252 18.2584 16.0002 18.4667 15.5252 18.4667C14.8752 18.4667 14.2002 18.0917 13.5169 17.3584C13.3169 17.1417 13.0419 17.025 12.8086 17.0417C12.5502 17.0584 12.3169 17.1917 12.1336 17.4334L11.2919 18.55C10.8669 19.1167 10.2419 19.4584 9.58356 19.4584ZM6.3169 15.775C6.35024 15.775 6.39191 15.775 6.42524 15.775C7.04191 15.8084 7.61688 16.1334 8.00854 16.6584L8.85856 17.7833C9.26689 18.3334 9.88354 18.3334 10.2919 17.7917L11.1335 16.675C11.5335 16.1417 12.1169 15.825 12.7336 15.7917C13.3502 15.7584 13.9669 16.0167 14.4169 16.5C15.0335 17.1584 15.4085 17.2084 15.5085 17.2084C15.5752 17.2084 15.6336 17.1917 15.6919 17.1417C15.9252 16.6167 16.0252 15.825 16.0252 14.6417V6.37502C16.0252 5.20835 15.9169 4.41669 15.6919 3.89169C15.6252 3.81669 15.5585 3.80835 15.5085 3.80835C15.4085 3.80835 15.0335 3.85835 14.4169 4.51669C13.9669 5.00002 13.3502 5.25835 12.7336 5.22502C12.1086 5.19168 11.5252 4.86669 11.1252 4.34169L10.2836 3.22502C9.87525 2.67502 9.25855 2.67502 8.85022 3.22502L8.0002 4.35835C7.60854 4.88335 7.03357 5.20002 6.4169 5.23335C5.80023 5.26669 5.18355 5.00835 4.73355 4.53335C4.22522 3.98335 3.83358 3.80002 3.61691 3.80835C3.56691 3.80835 3.50856 3.82502 3.44189 3.89169C3.21689 4.41669 3.10854 5.20835 3.10854 6.37502V14.6417C3.10854 15.8167 3.21689 16.6084 3.44189 17.1334C3.51689 17.2 3.56691 17.2084 3.61691 17.2167C3.82525 17.225 4.21688 17.0417 4.72521 16.5C5.16688 16.025 5.7419 15.775 6.3169 15.775Z" fill="#FFDB6F"/>
<path id="Vector_2" d="M13.3334 9.66666H6.66669C6.32502 9.66666 6.04169 9.38332 6.04169 9.04166C6.04169 8.69999 6.32502 8.41666 6.66669 8.41666H13.3334C13.675 8.41666 13.9584 8.69999 13.9584 9.04166C13.9584 9.38332 13.675 9.66666 13.3334 9.66666Z" fill="#FFDB6F"/>
<path id="Vector_3" d="M11.6667 12.5833H6.66669C6.32502 12.5833 6.04169 12.3 6.04169 11.9583C6.04169 11.6167 6.32502 11.3333 6.66669 11.3333H11.6667C12.0084 11.3333 12.2917 11.6167 12.2917 11.9583C12.2917 12.3 12.0084 12.5833 11.6667 12.5833Z" fill="#FFDB6F"/>
</g>
</svg>
