<svg width="20" height="20" viewBox="0 0 20 20" fill="none" xmlns="http://www.w3.org/2000/svg">
<path d="M8.33334 13.3333H11.6667M7.5 5.83333L6.66667 2.5M12.5 5.83333L13.3333 2.5M5.83334 5.83333H14.1667C14.6087 5.83333 15.0326 6.00893 15.3452 6.32149C15.6577 6.63405 15.8333 7.05797 15.8333 7.5V8.33333L16.6667 9.16667V11.6667L15.8333 12.5V15C15.8333 15.442 15.6577 15.866 15.3452 16.1785C15.0326 16.4911 14.6087 16.6667 14.1667 16.6667H5.83334C5.39131 16.6667 4.96739 16.4911 4.65482 16.1785C4.34226 15.866 4.16667 15.442 4.16667 15V12.5L3.33334 11.6667V9.16667L4.16667 8.33333V7.5C4.16667 7.05797 4.34226 6.63405 4.65482 6.32149C4.96739 6.00893 5.39131 5.83333 5.83334 5.83333ZM7.5 9.58333C7.5 9.81345 7.31345 10 7.08334 10C6.85322 10 6.66667 9.81345 6.66667 9.58333C6.66667 9.35321 6.85322 9.16667 7.08334 9.16667C7.31345 9.16667 7.5 9.35321 7.5 9.58333ZM13.3333 9.58333C13.3333 9.81345 13.1468 10 12.9167 10C12.6866 10 12.5 9.81345 12.5 9.58333C12.5 9.35321 12.6866 9.16667 12.9167 9.16667C13.1468 9.16667 13.3333 9.35321 13.3333 9.58333Z" stroke="#FFDB6F" stroke-width="1.5" stroke-linecap="round" stroke-linejoin="round"/>
</svg>
