<svg width="20" height="21" viewBox="0 0 20 21" fill="none" xmlns="http://www.w3.org/2000/svg">
<path d="M17.1834 11.3917C16.8667 11.3917 16.6 11.15 16.5584 10.8334C16.3584 8.95002 15.3417 7.24169 13.775 6.15836C13.4917 5.95836 13.425 5.57502 13.6167 5.29169C13.8167 5.00836 14.2084 4.94169 14.4834 5.13336C16.35 6.42502 17.55 8.45836 17.7917 10.7C17.825 11.0417 17.5834 11.35 17.2334 11.3917C17.225 11.3917 17.2 11.3917 17.1834 11.3917Z" fill="#FFDB6F"/>
<path d="M2.90832 11.4333C2.88332 11.4333 2.86665 11.4333 2.84165 11.4333C2.49998 11.3917 2.24998 11.0833 2.28332 10.7417C2.50832 8.50001 3.69998 6.47501 5.54165 5.16668C5.82498 4.96668 6.21665 5.03334 6.41665 5.31668C6.61665 5.60001 6.54998 5.99168 6.26665 6.19168C4.71665 7.28334 3.71665 8.99168 3.52498 10.875C3.49998 11.1917 3.22498 11.4333 2.90832 11.4333Z" fill="#FFDB6F"/>
<path d="M10.05 19.3417C8.81666 19.3417 7.64166 19.0583 6.54166 18.5083C6.23332 18.35 6.10832 17.975 6.26666 17.6667C6.42499 17.3583 6.79999 17.2333 7.10832 17.3917C8.90832 18.3 11.075 18.3167 12.8917 17.4417C13.2 17.2917 13.575 17.425 13.725 17.7333C13.875 18.0417 13.7417 18.4167 13.4333 18.5667C12.3667 19.0833 11.2333 19.3417 10.05 19.3417Z" fill="#FFDB6F"/>
<path d="M10.05 7.53336C8.425 7.53336 7.10834 6.21669 7.10834 4.59169C7.10834 2.96669 8.425 1.65002 10.05 1.65002C11.675 1.65002 12.9917 2.96669 12.9917 4.59169C12.9917 6.21669 11.6667 7.53336 10.05 7.53336ZM10.05 2.90836C9.11667 2.90836 8.35834 3.66669 8.35834 4.60002C8.35834 5.53336 9.11667 6.29169 10.05 6.29169C10.9833 6.29169 11.7417 5.53336 11.7417 4.60002C11.7417 3.66669 10.975 2.90836 10.05 2.90836Z" fill="#FFDB6F"/>
<path d="M4.02498 17.725C2.39998 17.725 1.08331 16.4083 1.08331 14.7833C1.08331 13.1667 2.39998 11.8417 4.02498 11.8417C5.64998 11.8417 6.96665 13.1583 6.96665 14.7833C6.96665 16.4 5.64998 17.725 4.02498 17.725ZM4.02498 13.0917C3.09165 13.0917 2.33331 13.85 2.33331 14.7833C2.33331 15.7167 3.09165 16.475 4.02498 16.475C4.95831 16.475 5.71665 15.7167 5.71665 14.7833C5.71665 13.85 4.95831 13.0917 4.02498 13.0917Z" fill="#FFDB6F"/>
<path d="M15.975 17.725C14.35 17.725 13.0333 16.4083 13.0333 14.7833C13.0333 13.1667 14.35 11.8417 15.975 11.8417C17.6 11.8417 18.9167 13.1583 18.9167 14.7833C18.9083 16.4 17.5917 17.725 15.975 17.725ZM15.975 13.0917C15.0417 13.0917 14.2833 13.85 14.2833 14.7833C14.2833 15.7167 15.0417 16.475 15.975 16.475C16.9083 16.475 17.6667 15.7167 17.6667 14.7833C17.6583 13.85 16.9083 13.0917 15.975 13.0917Z" fill="#FFDB6F"/>
</svg>
