<svg width="20" height="21" viewBox="0 0 20 21" fill="none" xmlns="http://www.w3.org/2000/svg">
<path d="M9.99998 19.4667C9.09165 19.4667 8.19165 19.2 7.48331 18.675L3.89998 16C2.94998 15.2917 2.20831 13.8083 2.20831 12.6333V6.43335C2.20831 5.15001 3.14998 3.78335 4.35831 3.33335L8.51665 1.77501C9.34165 1.46668 10.6416 1.46668 11.4666 1.77501L15.625 3.33335C16.8333 3.78335 17.775 5.15001 17.775 6.43335V12.625C17.775 13.8083 17.0333 15.2833 16.0833 15.9917L12.5 18.6667C11.8083 19.2 10.9083 19.4667 9.99998 19.4667ZM8.95831 2.95001L4.79998 4.50835C4.09165 4.77501 3.46665 5.67501 3.46665 6.44168V12.6333C3.46665 13.425 4.02498 14.5333 4.64998 15L8.23331 17.675C9.19165 18.3917 10.8083 18.3917 11.775 17.675L15.3583 15C15.9916 14.525 16.5416 13.425 16.5416 12.6333V6.43335C16.5416 5.67501 15.9166 4.77501 15.2083 4.50001L11.05 2.94168C10.4833 2.74168 9.51665 2.74168 8.95831 2.95001Z" fill="#FFDB6F"/>
</svg>
