<svg width="20" height="21" viewBox="0 0 20 21" fill="none" xmlns="http://www.w3.org/2000/svg">
<path d="M14.7168 19.3916C14.2751 19.3916 13.7085 19.25 13.0001 18.8333L10.5085 17.3583C10.2501 17.2083 9.75012 17.2083 9.50012 17.3583L7.00012 18.8333C5.52512 19.7083 4.65845 19.3583 4.26678 19.075C3.88345 18.7916 3.28345 18.0666 3.67512 16.4L4.26678 13.8416C4.33345 13.575 4.20012 13.1166 4.00012 12.9166L1.93345 10.85C0.900118 9.81664 0.983452 8.93331 1.12512 8.49998C1.26679 8.06664 1.71679 7.29998 3.15012 7.05831L5.80845 6.61664C6.05845 6.57498 6.41678 6.30831 6.52512 6.08331L8.00012 3.14164C8.66679 1.79998 9.54179 1.59998 10.0001 1.59998C10.4585 1.59998 11.3335 1.79998 12.0001 3.14164L13.4668 6.07498C13.5835 6.29998 13.9418 6.56664 14.1918 6.60831L16.8501 7.04998C18.2918 7.29164 18.7418 8.05831 18.8751 8.49164C19.0085 8.92498 19.0918 9.80831 18.0668 10.8416L16.0001 12.9166C15.8001 13.1166 15.6751 13.5666 15.7335 13.8416L16.3251 16.4C16.7085 18.0666 16.1168 18.7916 15.7335 19.075C15.5251 19.225 15.1918 19.3916 14.7168 19.3916ZM10.0001 15.9916C10.4085 15.9916 10.8168 16.0916 11.1418 16.2833L13.6335 17.7583C14.3585 18.1916 14.8168 18.1916 14.9918 18.0666C15.1668 17.9416 15.2918 17.5 15.1085 16.6833L14.5168 14.125C14.3585 13.4333 14.6168 12.5416 15.1168 12.0333L17.1835 9.96664C17.5918 9.55831 17.7751 9.15831 17.6918 8.88331C17.6001 8.60831 17.2168 8.38331 16.6501 8.29164L13.9918 7.84998C13.3501 7.74164 12.6501 7.22498 12.3585 6.64164L10.8918 3.70831C10.6251 3.17498 10.2918 2.85831 10.0001 2.85831C9.70845 2.85831 9.37512 3.17498 9.11679 3.70831L7.64179 6.64164C7.35012 7.22498 6.65012 7.74164 6.00845 7.84998L3.35845 8.29164C2.79179 8.38331 2.40845 8.60831 2.31679 8.88331C2.22512 9.15831 2.41679 9.56664 2.82512 9.96664L4.89178 12.0333C5.39179 12.5333 5.65012 13.4333 5.49179 14.125L4.90012 16.6833C4.70845 17.5083 4.84178 17.9416 5.01679 18.0666C5.19178 18.1916 5.64179 18.1833 6.37512 17.7583L8.86679 16.2833C9.18345 16.0916 9.59179 15.9916 10.0001 15.9916Z" fill="#FFDB6F"/>
</svg>
